<?xml version="1.0" encoding="iso-8859-1"?>
<!-- Generator: Adobe Illustrator 16.0.0, SVG Export Plug-In . SVG Version: 6.00 Build 0)  -->
<!DOCTYPE svg PUBLIC "-//W3C//DTD SVG 1.1//EN" "http://www.w3.org/Graphics/SVG/1.1/DTD/svg11.dtd">
<svg version="1.1" id="Capa_1" xmlns="http://www.w3.org/2000/svg" xmlns:xlink="http://www.w3.org/1999/xlink" x="0px" y="0px"
	 width="32px" height="32px" viewBox="0 0 32 32" style="enable-background:new 0 0 32 32;" xml:space="preserve">
<g>
	<g>
		<polygon points="13.885,25.765 0.002,18.356 0,20.249 13.885,28.23 32,17.818 32,16.119 13.885,25.758 		"/>
		<path d="M13.256,24.774l-0.017-14.23L0.674,7.141L0.69,18.229L13.256,24.774z M9.179,11.736l3.229,1.02v0.987l-3.229-1.077V11.736
			z M9.179,13.487l3.229,1.126V15.6l-3.229-1.183V13.487z M9.179,15.063l3.229,1.222v0.988l-3.229-1.278V15.063z M5.179,10.472
			l3.112,0.983v0.915l-3.112-1.037V10.472z M5.179,12.091l3.112,1.086v0.915l-3.112-1.14V12.091z M5.179,13.55l3.112,1.178v0.915
			l-3.112-1.231V13.55z M1.738,9.385l2.369,0.749v0.842l-2.369-0.79V9.385z M1.738,10.892l2.369,0.826v0.843l-2.369-0.868V10.892z
			 M1.738,12.249l2.369,0.896v0.843l-2.369-0.939V12.249z"/>
		<path d="M23.553,6.395v1.6l-9.668,2.619v14.488l15.139-7.885v-4.093L32,11.857v-7.47L23.553,6.395z M18.591,20.32l-3.383,1.614
			v-1.945l3.383-1.498V20.32z M18.591,17.825l-3.383,1.455v-1.945l3.383-1.339V17.825z M18.591,15.281l-3.383,1.294V14.63
			l3.383-1.178V15.281z M18.591,12.666l-3.383,1.128v-1.945l3.383-1.012V12.666z M26.031,17.838l-1.658,0.828v-1.407l1.658-0.78
			V17.838z M26.031,15.584l-1.658,0.748v-1.408l1.658-0.699V15.584z M26.031,13.049l-1.658,0.656v-1.408l1.658-0.606V13.049z
			 M26.031,10.795l-1.658,0.575V9.962l1.658-0.525V10.795z M26.031,8.682l-1.658,0.499V7.773l1.658-0.449V8.682z M27.941,16.881
			l-1.521,0.762v-1.348l1.521-0.716V16.881z M27.941,14.722l-1.521,0.686v-1.347l1.521-0.641V14.722z M27.941,12.293l-1.521,0.602
			v-1.348l1.521-0.557V12.293z M27.941,10.133l-1.521,0.527V9.313l1.521-0.481V10.133z M27.941,8.109l-1.521,0.456V7.218
			l1.521-0.412V8.109z M29.673,11.608l-1.401,0.555v-1.292l1.401-0.514V11.608z M29.673,9.534l-1.401,0.485V8.727l1.401-0.444V9.534
			z M29.673,7.588l-1.401,0.421V6.717l1.401-0.38V7.588z M31.301,10.964l-1.294,0.512v-1.241l1.294-0.474V10.964z M31.301,8.969
			l-1.294,0.448v-1.24l1.294-0.41V8.969z M31.301,7.099l-1.294,0.389v-1.24l1.294-0.351V7.099z"/>
		<polygon points="19.65,8.683 19.65,8.7 21.072,8.324 21.076,8.323 21.076,8.323 23.287,7.739 23.287,7.201 19.65,6.537 
			19.65,6.544 11.299,5.041 0.883,6.778 13.662,10.197 		"/>
		<polygon points="31.648,4.273 27.577,3.77 19.654,5.354 19.654,5.589 23.343,6.207 		"/>
		<polygon points="23.303,7.004 23.299,6.434 19.65,5.813 19.654,6.35 		"/>
	</g>
</g>
<g>
</g>
<g>
</g>
<g>
</g>
<g>
</g>
<g>
</g>
<g>
</g>
<g>
</g>
<g>
</g>
<g>
</g>
<g>
</g>
<g>
</g>
<g>
</g>
<g>
</g>
<g>
</g>
<g>
</g>
</svg>
